<svg xmlns="http://www.w3.org/2000/svg" width="128" height="48" fill="none" viewBox="0 0 128 48">
  <path fill="white" d="M66.833 23.8438C66.2001 24.6016 65.3056 25.1914 64.1494 25.6133C62.9931 26.0273 61.7119 26.2344 60.3056 26.2344C58.8291 26.2344 57.5322 25.9141 56.415 25.2734C55.3056 24.625 54.4462 23.6875 53.8369 22.4609C53.2353 21.2344 52.9267 19.793 52.9111 18.1367V16.9766C52.9111 15.2734 53.1962 13.8008 53.7666 12.5586C54.3447 11.3086 55.1728 10.3555 56.2509 9.69922C57.3369 9.03516 58.6064 8.70312 60.0595 8.70312C62.083 8.70312 63.665 9.1875 64.8056 10.1562C65.9462 11.1172 66.622 12.5195 66.833 14.3633H63.4111C63.2548 13.3867 62.9072 12.6719 62.3681 12.2188C61.8369 11.7656 61.1025 11.5391 60.165 11.5391C58.9697 11.5391 58.0595 11.9883 57.4345 12.8867C56.8095 13.7852 56.4931 15.1211 56.4853 16.8945V17.9844C56.4853 19.7734 56.8251 21.125 57.5048 22.0391C58.1845 22.9531 59.1806 23.4102 60.4931 23.4102C61.8134 23.4102 62.7548 23.1289 63.3173 22.5664V19.625H60.1181V17.0352H66.833V23.8438ZM73.0439 26H69.6455V13.3203H73.0439V26ZM69.4462 10.0391C69.4462 9.53125 69.6142 9.11328 69.9501 8.78516C70.2939 8.45703 70.7587 8.29297 71.3447 8.29297C71.9228 8.29297 72.3837 8.45703 72.7275 8.78516C73.0712 9.11328 73.2431 9.53125 73.2431 10.0391C73.2431 10.5547 73.0673 10.9766 72.7158 11.3047C72.372 11.6328 71.915 11.7969 71.3447 11.7969C70.7744 11.7969 70.3134 11.6328 69.9619 11.3047C69.6181 10.9766 69.4462 10.5547 69.4462 10.0391ZM79.8994 10.2031V13.3203H82.0673V15.8047H79.8994V22.1328C79.8994 22.6016 79.9892 22.9375 80.1689 23.1406C80.3486 23.3437 80.6923 23.4453 81.2001 23.4453C81.5751 23.4453 81.9072 23.418 82.1962 23.3633V25.9297C81.5322 26.1328 80.8486 26.2344 80.1455 26.2344C77.7705 26.2344 76.5595 25.0352 76.5126 22.6367V15.8047H74.6611V13.3203H76.5126V10.2031H79.8994ZM98.0634 26H94.5478V18.6875H87.6923V26H84.1767V8.9375H87.6923V15.8516H94.5478V8.9375H98.0634V26ZM108.517 24.7109C107.681 25.7266 106.524 26.2344 105.048 26.2344C103.688 26.2344 102.649 25.8438 101.931 25.0625C101.22 24.2812 100.856 23.1367 100.841 21.6289V13.3203H104.227V21.5117C104.227 22.832 104.829 23.4922 106.032 23.4922C107.181 23.4922 107.97 23.0938 108.399 22.2969V13.3203H111.798V26H108.61L108.517 24.7109ZM125.778 19.7773C125.778 21.8086 125.345 23.3945 124.477 24.5352C123.61 25.668 122.399 26.2344 120.845 26.2344C119.47 26.2344 118.372 25.707 117.552 24.6523L117.399 26H114.352V8H117.739V14.457C118.52 13.543 119.548 13.0859 120.821 13.0859C122.368 13.0859 123.579 13.6562 124.454 14.7969C125.337 15.9297 125.778 17.5273 125.778 19.5898V19.7773ZM122.392 19.5312C122.392 18.25 122.188 17.3164 121.782 16.7305C121.376 16.1367 120.77 15.8398 119.966 15.8398C118.888 15.8398 118.145 16.2813 117.739 17.1641V22.168C118.153 23.0586 118.903 23.5039 119.989 23.5039C121.083 23.5039 121.802 22.9648 122.145 21.8867C122.31 21.3711 122.392 20.5859 122.392 19.5312Z"/>
  <path fill="#B3BCC7" d="M59.1049 39.0381C59.1049 38.6963 58.9751 38.432 58.7153 38.2451C58.4601 38.0537 58.0112 37.8896 57.3686 37.7529C56.7306 37.6162 56.2224 37.4521 55.8442 37.2607C55.4705 37.0693 55.1925 36.8415 55.0102 36.5771C54.8325 36.3128 54.7436 35.9984 54.7436 35.6338C54.7436 35.0277 54.9988 34.515 55.5092 34.0957C56.0242 33.6764 56.6805 33.4668 57.478 33.4668C58.3165 33.4668 58.9956 33.6833 59.5151 34.1162C60.0392 34.5492 60.3012 35.1029 60.3012 35.7773H59.0297C59.0297 35.431 58.8816 35.1325 58.5854 34.8818C58.2937 34.6312 57.9246 34.5059 57.478 34.5059C57.0177 34.5059 56.6577 34.6061 56.3979 34.8066C56.1381 35.0072 56.0083 35.2692 56.0083 35.5928C56.0083 35.8981 56.129 36.1283 56.3706 36.2832C56.6121 36.4382 57.0473 36.5863 57.6762 36.7275C58.3097 36.8688 58.8224 37.0374 59.2143 37.2334C59.6062 37.4294 59.8956 37.6663 60.0825 37.9443C60.2739 38.2178 60.3696 38.5527 60.3696 38.9492C60.3696 39.61 60.1053 40.141 59.5766 40.542C59.048 40.9385 58.3621 41.1367 57.519 41.1367C56.9265 41.1367 56.4025 41.0319 55.9467 40.8223C55.491 40.6126 55.1333 40.321 54.8735 39.9473C54.6183 39.569 54.4907 39.1611 54.4907 38.7236H55.7553C55.7781 39.1475 55.9467 39.4847 56.2612 39.7354C56.5802 39.9814 56.9995 40.1045 57.519 40.1045C57.9975 40.1045 58.3803 40.0088 58.6674 39.8174C58.9591 39.6214 59.1049 39.3617 59.1049 39.0381ZM65.0864 41.1367C64.0838 41.1367 63.268 40.8086 62.6391 40.1523C62.0102 39.4915 61.6958 38.6097 61.6958 37.5068V37.2744C61.6958 36.5407 61.8348 35.8867 62.1127 35.3125C62.3953 34.7337 62.7872 34.2826 63.2885 33.959C63.7944 33.6309 64.3413 33.4668 64.9292 33.4668C65.8907 33.4668 66.6381 33.7835 67.1713 34.417C67.7045 35.0505 67.9711 35.9574 67.9711 37.1377V37.6641H62.9604C62.9786 38.3932 63.1905 38.9834 63.5961 39.4346C64.0063 39.8812 64.5258 40.1045 65.1547 40.1045C65.6014 40.1045 65.9796 40.0133 66.2895 39.8311C66.5994 39.6488 66.8706 39.4072 67.103 39.1064L67.8754 39.708C67.2557 40.6605 66.326 41.1367 65.0864 41.1367ZM64.9292 34.5059C64.4187 34.5059 63.9904 34.6927 63.644 35.0664C63.2976 35.4355 63.0835 35.9551 63.0014 36.625H66.7065V36.5293C66.67 35.8867 66.4969 35.39 66.187 35.0391C65.8771 34.6836 65.4578 34.5059 64.9292 34.5059ZM74.0073 41C73.9344 40.8542 73.8751 40.5944 73.8295 40.2207C73.2417 40.8314 72.5398 41.1367 71.7241 41.1367C70.9949 41.1367 70.3956 40.9316 69.9262 40.5215C69.4614 40.1068 69.229 39.5827 69.229 38.9492C69.229 38.179 69.5206 37.582 70.104 37.1582C70.6918 36.7298 71.5167 36.5156 72.5786 36.5156H73.809V35.9346C73.809 35.4925 73.6769 35.1416 73.4126 34.8818C73.1482 34.6175 72.7586 34.4854 72.2436 34.4854C71.7924 34.4854 71.4142 34.5993 71.1088 34.8271C70.8035 35.055 70.6508 35.3307 70.6508 35.6543H69.3793C69.3793 35.2852 69.5092 34.9297 69.769 34.5879C70.0333 34.2415 70.3888 33.9681 70.8354 33.7676C71.2866 33.5671 71.781 33.4668 72.3188 33.4668C73.171 33.4668 73.8387 33.681 74.3217 34.1094C74.8048 34.5332 75.0555 35.1188 75.0737 35.8662V39.2705C75.0737 39.9495 75.1603 40.4896 75.3335 40.8906V41H74.0073ZM71.9086 40.0361C72.3051 40.0361 72.6811 39.9336 73.0366 39.7285C73.392 39.5234 73.6495 39.2568 73.809 38.9287V37.4111H72.8178C71.2683 37.4111 70.4936 37.8646 70.4936 38.7715C70.4936 39.168 70.6258 39.4779 70.8901 39.7012C71.1544 39.9245 71.4939 40.0361 71.9086 40.0361ZM80.6313 34.7383C80.4399 34.7064 80.2325 34.6904 80.0092 34.6904C79.1798 34.6904 78.617 35.0436 78.3208 35.75V41H77.0561V33.6035H78.2866L78.3071 34.458C78.7218 33.7972 79.3097 33.4668 80.0708 33.4668C80.3168 33.4668 80.5037 33.4987 80.6313 33.5625V34.7383ZM84.6303 40.1045C85.0815 40.1045 85.4757 39.9678 85.8129 39.6943C86.1502 39.4209 86.337 39.0791 86.3735 38.6689H87.5698C87.547 39.0928 87.4012 39.4961 87.1323 39.8789C86.8634 40.2617 86.5034 40.5671 86.0522 40.7949C85.6056 41.0228 85.1316 41.1367 84.6303 41.1367C83.6232 41.1367 82.8211 40.8018 82.2241 40.1318C81.6316 39.4574 81.3354 38.5368 81.3354 37.3701V37.1582C81.3354 36.4382 81.4676 35.7979 81.7319 35.2373C81.9962 34.6768 82.3745 34.2415 82.8667 33.9316C83.3634 33.6217 83.949 33.4668 84.6235 33.4668C85.4529 33.4668 86.1411 33.7152 86.6879 34.2119C87.2394 34.7087 87.5333 35.3535 87.5698 36.1465H86.3735C86.337 35.668 86.1547 35.276 85.8266 34.9707C85.503 34.6608 85.102 34.5059 84.6235 34.5059C83.9809 34.5059 83.4819 34.7383 83.1264 35.2031C82.7755 35.6634 82.6001 36.3311 82.6001 37.2061V37.4453C82.6001 38.2975 82.7755 38.9538 83.1264 39.4141C83.4773 39.8743 83.9786 40.1045 84.6303 40.1045ZM90.2563 34.499C90.8168 33.8109 91.546 33.4668 92.4438 33.4668C94.007 33.4668 94.7954 34.3486 94.809 36.1123V41H93.5444V36.1055C93.5398 35.5723 93.4168 35.1781 93.1752 34.9229C92.9383 34.6676 92.5668 34.54 92.061 34.54C91.6508 34.54 91.2908 34.6494 90.9809 34.8682C90.671 35.0869 90.4295 35.374 90.2563 35.7295V41H88.9917V30.5H90.2563V34.499Z"/>
  <path fill="white" fill-rule="evenodd" d="M20.4282 24.5104C23.8694 24.1027 27.5295 22.8475 27.5295 16.8846C27.5295 15.1898 26.9346 13.8086 25.9656 12.7414C26.1219 12.3338 26.622 10.7958 25.777 8.66203C25.777 8.66203 24.5257 8.25386 21.5857 10.2308C20.3344 9.88597 18.9581 9.6659 17.6756 9.6659C16.3612 9.6659 14.9845 9.88597 13.7644 10.2308C10.7925 8.25386 9.54127 8.66203 9.54127 8.66203C8.69685 10.7958 9.19753 12.3338 9.35378 12.7414C8.3838 13.8085 7.78944 15.1898 7.78944 16.8846C7.78944 22.8475 11.4495 24.1027 14.8907 24.5104C14.4531 24.8877 14.0463 25.6088 13.89 26.6133C13.0137 26.9896 10.73 27.7118 9.35378 25.3266C9.35378 25.3266 8.54012 23.8519 7.00752 23.7578C7.00752 23.7578 5.47444 23.7265 6.88245 24.6985C6.88245 24.6985 7.91444 25.1699 8.6031 26.9582C8.6031 26.9582 9.54127 29.9401 13.8582 28.9983V31.6657C13.8582 32.0744 13.5457 32.5447 12.7638 32.4193C6.63198 30.3791 2.22126 24.5416 2.22126 17.7004C2.22126 9.13241 9.13448 2.1971 17.6756 2.1971C26.1844 2.1971 33.1294 9.13248 33.0981 17.7004C33.0981 24.5416 28.6869 30.3477 22.5556 32.4193C21.7732 32.5761 21.4606 32.1058 21.4606 31.6657V27.3668C21.4607 25.9223 20.9908 24.9817 20.4282 24.5104ZM35.3194 17.7322C35.3194 7.93981 27.4045 6.72444e-08 17.6756 6.72444e-08C7.91444 6.72444e-08 -7.45072e-07 7.93981 -7.45072e-07 17.7322C-7.45072e-07 27.4923 7.91444 35.4326 17.6756 35.4326C27.4045 35.4326 35.3194 27.4923 35.3194 17.7322Z" clip-rule="evenodd"/>
  <path fill="white" d="M27.0882 32.58C27.0882 32.58 31.4393 43.6471 37.2649 47.744C38.8177 48.836 42.6521 46.1892 41.9044 44.4409C39.366 38.5064 29.6324 30.1778 29.6324 30.1778L27.0882 32.58Z"/>
</svg>
